HIERARCHY
ROOT Hips
{
	OFFSET 0.000000 0.000000 0.000000 
	CHANNELS 6 Xposition Yposition Zposition Yrotation Zrotation Xrotation 
	JOINT Lumbar
	{
		OFFSET 0.000000 0.000000 0.000000 
		CHANNELS 3 Zrotation Xrotation Yrotation
		JOINT Neck
		{
			OFFSET 0.000000 0.445665 0.000000 
			CHANNELS 3 Zrotation Xrotation Yrotation
			End Site
			{
				OFFSET 0.000000 0.227535 0.000000 
			}
		}
		JOINT RightShoulder
		{
			OFFSET 0.019635 0.377685 0.194865 
			CHANNELS 3 Zrotation Xrotation Yrotation
			JOINT RightElbow
			{
				OFFSET 0.000000 -0.243375 0.000000 
				CHANNELS 2 Zrotation Yrotation
				JOINT RightWrist
				{
					OFFSET 0.000000 -0.264825 0.000000 
					CHANNELS 2 Zrotation Xrotation
					End Site
					{
						OFFSET 0.006600 -0.176220 0.000990 
					}
				}
			}
		}
		JOINT LeftShoulder
		{
			OFFSET 0.019635 0.377685 -0.194865 
			CHANNELS 3 Zrotation Xrotation Yrotation
			JOINT LeftElbow
			{
				OFFSET 0.000000 -0.243375 0.000000 
				CHANNELS 2 Zrotation Yrotation
				JOINT LeftWrist
				{
					OFFSET 0.000000 -0.264825 0.000000 
					CHANNELS 2 Zrotation Xrotation
					End Site
					{
						OFFSET 0.006600 -0.176220 -0.000990 
					}
				}
			}
		}
	}
	JOINT RightHip
	{
		OFFSET 0.052140 -0.069960 0.075570 
		CHANNELS 3 Zrotation Xrotation Yrotation
		JOINT RightKnee
		{
			OFFSET 0.000000 -0.402270 0.000000 
			CHANNELS 1 Zrotation
			JOINT RightAnkle
			{
				OFFSET 0.000000 -0.404085 0.000000 
				CHANNELS 3 Zrotation Xrotation Yrotation
				End Site
				{
					OFFSET 0.204105 -0.089430 0.008415 
				}
			}
		}
	}
	JOINT LeftHip
	{
		OFFSET 0.052140 -0.069960 -0.075570 
		CHANNELS 3 Zrotation Xrotation Yrotation
		JOINT LeftKnee
		{
			OFFSET 0.000000 -0.402270 0.000000 
			CHANNELS 1 Zrotation
			JOINT LeftAnkle
			{
				OFFSET 0.000000 -0.404085 0.000000 
				CHANNELS 3 Zrotation Xrotation Yrotation
				End Site
				{
					OFFSET 0.204105 -0.089430 -0.008415 
				}
			}
		}
	}
}
MOTION
Frames: 11
Frame Time: 0.02
0 0.95578 0 175.47193 0 -5.13768 5.61333 5.11185 -0.53834 -29.9314 0.49258 2.96412 -15.90041 -65.83048 -85.31749 20.35963 60.12681 -27.54268 0.48272 8.38699 69.38384 77.90745 24.55841 -83.07443 -22.49132 3.41556 -0.77733 5.35373 -2.52581 -9.13995 1.31639 -3.8683 -9.20095 -2.39702 4.73515 11.30403 -6.92974 5.9054 5.34514 9.84376
-0.0006 0.95572 -0.00013 175.45815 0 -5.13774 5.59492 5.10539 -0.48847 -30.29018 0.57832 2.99402 -14.66982 -65.53257 -85.68495 20.51279 61.85964 -27.22724 0.10412 8.48413 68.78692 77.98277 24.73297 -83.91153 -22.64039 3.51654 -0.8425 5.35621 -2.5933 -9.07961 1.31731 -3.85712 -9.14734 -2.43732 4.73853 11.31165 -6.92818 5.93005 5.36064 9.85257
-0.0012 0.95566 -0.00027 175.4452 0 -5.13775 5.57664 5.09895 -0.43997 -30.64842 0.66307 3.02383 -13.44113 -65.2349 -86.04955 20.66544 63.58436 -26.91185 -0.27203 8.58342 68.19254 78.05632 24.90549 -84.74429 -22.78767 3.61714 -0.9076 5.35869 -2.66089 -9.0194 1.31833 -3.84608 -9.09418 -2.4774 4.7419 11.31869 -6.92657 5.9546 5.376 9.86115
-0.00179 0.9556 -0.0004 175.43469 0 -5.13761 5.55882 5.09248 -0.39686 -31.00799 0.74468 3.05407 -12.20687 -64.93557 -86.40605 20.81851 65.29653 -26.59232 -0.64152 8.68856 67.60219 78.12564 25.0728 -85.56957 -22.92992 3.71746 -0.97297 5.36117 -2.72897 -8.95907 1.31966 -3.83542 -9.04211 -2.51711 4.74527 11.3241 -6.92469 5.97897 5.391 9.86897
-0.00241 0.95554 -0.00054 175.41031 0 -5.13831 5.53871 5.08612 -0.32565 -31.36047 0.84288 3.08264 -11.00072 -64.64537 -86.80515 20.97055 67.07876 -26.29322 -1.04566 8.75829 66.99012 78.21992 25.26919 -86.43653 -23.09961 3.81952 -1.03679 5.36364 -2.79379 -8.89934 1.31922 -3.82266 -8.98404 -2.55894 4.74862 11.33889 -6.92418 6.00425 5.40793 9.88086
-0.00298 0.95547 -0.00067 175.41593 0 -5.1372 5.52338 5.07953 -0.31362 -31.72766 0.90593 3.11428 -9.73727 -64.33593 -87.11394 21.12382 68.70859 -25.95225 -1.37651 8.90585 66.42486 78.25958 25.40288 -87.21309 -23.21054 3.91762 -1.10394 5.36613 -2.86592 -8.83842 1.32259 -3.81441 -8.93886 -2.59614 4.75202 11.33333 -6.92082 6.02759 5.42076 9.8841
-0.00348 0.9554 -0.00081 175.50231 0 -5.13135 5.52189 5.07221 -0.4735 -32.14663 0.8698 3.1592 -8.26649 -63.96478 -87.17115 21.29182 69.96895 -25.47281 -1.50312 9.25459 65.97554 78.15832 25.36942 -87.76417 -23.16086 4.00885 -1.1816 5.36868 -2.95686 -8.7722 1.33658 -3.81841 -8.92828 -2.62187 4.75562 11.2737 -6.90864 6.04602 5.42224 9.86303
-0.00395 0.95533 -0.00095 175.6194 0 -5.12363 5.52508 5.06468 -0.69177 -32.57874 0.79858 3.20644 -6.74542 -63.57557 -87.13761 21.45931 71.06785 -24.95464 -1.55607 9.68443 65.57537 77.99992 25.2717 -88.22013 -23.05151 4.09557 -1.26245 5.37125 -3.05553 -8.70508 1.35441 -3.82699 -8.93086 -2.64271 4.75929 11.19316 -6.89371 6.0624 5.41957 9.83323
-0.00442 0.95526 -0.00109 175.72399 0 -5.11662 5.52573 5.05732 -0.87798 -32.99829 0.7447 3.24948 -5.2772 -63.19949 -87.14711 21.61973 72.20821 -24.46863 -1.6443 10.08704 65.16088 77.86116 25.1992 -88.70461 -22.96825 4.18159 -1.3411 5.3738 -3.15166 -8.6396 1.37042 -3.8336 -8.92814 -2.66494 4.76292 11.12059 -6.88067 6.07946 5.41883 9.80771
-0.00492 0.95519 -0.00122 175.82267 0 -5.11021 5.52822 5.04964 -1.08736 -33.44614 0.68481 3.30555 -3.68186 -62.80185 -87.14914 21.81044 73.48128 -23.92184 -1.72556 10.45055 64.71284 77.74937 25.14281 -89.2512 -22.8892 4.27856 -1.42301 5.37638 -3.24367 -8.5689 1.38672 -3.83976 -8.92272 -2.69062 4.76657 11.0541 -6.86504 6.09763 5.41797 9.78105
-0.00536 0.95512 -0.00136 175.94065 0 -5.10212 5.52786 5.04258 -1.26251 -33.8375 0.62926 3.33534 -2.34028 -62.44586 -87.14503 21.93859 74.44183 -23.49171 -1.80297 10.91277 64.34611 77.5675 25.03851 -89.64569 -22.78734 4.35244 -1.49876 5.37888 -3.34609 -8.50891 1.40335 -3.84793 -8.92584 -2.70804 4.77018 10.97047 -6.85399 6.11297 5.4163 9.7545
